<svg width="111" height="16" viewBox="0 0 111 16" fill="none" xmlns="http://www.w3.org/2000/svg">
<path d="M5.21094 12L1.57812 2.50781H1.51953C1.58789 3.25977 1.62207 4.15332 1.62207 5.18848V12H0.472168V1.29199H2.34717L5.73828 10.125H5.79688L9.21729 1.29199H11.0776V12H9.83252V5.10059C9.83252 4.30957 9.8667 3.4502 9.93506 2.52246H9.87646L6.21436 12H5.21094ZM18.7754 12L18.5337 10.8574H18.4751C18.0747 11.3604 17.6743 11.7021 17.2739 11.8828C16.8784 12.0586 16.3828 12.1465 15.7871 12.1465C14.9912 12.1465 14.3662 11.9414 13.9121 11.5312C13.4629 11.1211 13.2383 10.5376 13.2383 9.78076C13.2383 8.15967 14.5347 7.31006 17.1274 7.23193L18.4897 7.18799V6.68994C18.4897 6.06006 18.353 5.59619 18.0796 5.29834C17.811 4.99561 17.3789 4.84424 16.7832 4.84424C16.1143 4.84424 15.3574 5.04932 14.5127 5.45947L14.1392 4.5293C14.5347 4.31445 14.9668 4.146 15.4355 4.02393C15.9092 3.90186 16.3828 3.84082 16.8564 3.84082C17.8135 3.84082 18.5215 4.05322 18.9805 4.47803C19.4443 4.90283 19.6763 5.58398 19.6763 6.52148V12H18.7754ZM16.0288 11.1431C16.7856 11.1431 17.3789 10.9355 17.8086 10.5205C18.2432 10.1055 18.4604 9.52441 18.4604 8.77734V8.05225L17.2446 8.10352C16.2778 8.1377 15.5796 8.28906 15.1499 8.55762C14.7251 8.82129 14.5127 9.23389 14.5127 9.79541C14.5127 10.2349 14.6445 10.5693 14.9082 10.7988C15.1768 11.0283 15.5503 11.1431 16.0288 11.1431ZM27.6523 10.9233H27.5864C27.0249 11.7388 26.1851 12.1465 25.0669 12.1465C24.0171 12.1465 23.1992 11.7876 22.6133 11.0698C22.0322 10.3521 21.7417 9.33154 21.7417 8.0083C21.7417 6.68506 22.0347 5.65723 22.6206 4.9248C23.2065 4.19238 24.022 3.82617 25.0669 3.82617C26.1558 3.82617 26.9907 4.22168 27.5718 5.0127H27.667L27.6157 4.43408L27.5864 3.87012V0.603516H28.8022V12H27.8135L27.6523 10.9233ZM25.2207 11.1284C26.0508 11.1284 26.6514 10.9038 27.0225 10.4546C27.3984 10.0005 27.5864 9.27051 27.5864 8.26465V8.0083C27.5864 6.87061 27.396 6.06006 27.0151 5.57666C26.6392 5.08838 26.0361 4.84424 25.2061 4.84424C24.4932 4.84424 23.9463 5.12256 23.5654 5.6792C23.1895 6.23096 23.0015 7.01221 23.0015 8.02295C23.0015 9.04834 23.1895 9.82227 23.5654 10.3447C23.9414 10.8672 24.4932 11.1284 25.2207 11.1284ZM34.7788 12.1465C33.5923 12.1465 32.6548 11.7852 31.9663 11.0625C31.2827 10.3398 30.9409 9.33643 30.9409 8.05225C30.9409 6.7583 31.2583 5.73047 31.8931 4.96875C32.5327 4.20703 33.3896 3.82617 34.4639 3.82617C35.4697 3.82617 36.2656 4.1582 36.8516 4.82227C37.4375 5.48145 37.7305 6.35303 37.7305 7.43701V8.20605H32.2007C32.2251 9.14844 32.4619 9.86377 32.9111 10.3521C33.3652 10.8403 34.0024 11.0845 34.8228 11.0845C35.687 11.0845 36.5415 10.9038 37.3862 10.5425V11.6265C36.9565 11.812 36.5488 11.9438 36.1631 12.022C35.7822 12.105 35.3208 12.1465 34.7788 12.1465ZM34.4492 4.84424C33.8047 4.84424 33.2896 5.0542 32.9038 5.47412C32.5229 5.89404 32.2983 6.4751 32.23 7.21729H36.4268C36.4268 6.45068 36.2559 5.86475 35.9141 5.45947C35.5723 5.04932 35.084 4.84424 34.4492 4.84424ZM50.2622 12L48.79 7.29053C48.6973 7.00244 48.5239 6.34814 48.27 5.32764H48.2114C48.0161 6.18213 47.8452 6.84131 47.6987 7.30518L46.1826 12H44.7764L42.5864 3.97266H43.8608C44.3784 5.98926 44.7715 7.5249 45.04 8.57959C45.3135 9.63428 45.4697 10.3447 45.5088 10.7109H45.5674C45.6211 10.4326 45.7065 10.0737 45.8237 9.63428C45.9458 9.18994 46.0508 8.83838 46.1387 8.57959L47.6108 3.97266H48.9292L50.3647 8.57959C50.6382 9.41943 50.8237 10.125 50.9214 10.6963H50.98C50.9995 10.5205 51.0508 10.2495 51.1338 9.8833C51.2217 9.51709 51.7319 7.54688 52.6646 3.97266H53.9243L51.7051 12H50.2622ZM56.5977 12H55.3818V3.97266H56.5977V12ZM55.2793 1.79736C55.2793 1.51904 55.3477 1.31641 55.4844 1.18945C55.6211 1.05762 55.792 0.991699 55.9971 0.991699C56.1924 0.991699 56.3608 1.05762 56.5024 1.18945C56.644 1.32129 56.7148 1.52393 56.7148 1.79736C56.7148 2.0708 56.644 2.27588 56.5024 2.4126C56.3608 2.54443 56.1924 2.61035 55.9971 2.61035C55.792 2.61035 55.6211 2.54443 55.4844 2.4126C55.3477 2.27588 55.2793 2.0708 55.2793 1.79736ZM61.7686 11.1431C61.9834 11.1431 62.1909 11.1284 62.3911 11.0991C62.5913 11.0649 62.75 11.0308 62.8672 10.9966V11.9268C62.7354 11.9902 62.54 12.0415 62.2812 12.0806C62.0273 12.1245 61.7979 12.1465 61.5928 12.1465C60.04 12.1465 59.2637 11.3286 59.2637 9.69287V4.91748H58.1138V4.33154L59.2637 3.82617L59.7764 2.1123H60.4795V3.97266H62.8086V4.91748H60.4795V9.6416C60.4795 10.125 60.5942 10.4961 60.8237 10.7549C61.0532 11.0137 61.3682 11.1431 61.7686 11.1431ZM69.9717 12V6.80713C69.9717 6.15283 69.8228 5.66455 69.5249 5.34229C69.2271 5.02002 68.7607 4.85889 68.126 4.85889C67.2812 4.85889 66.6636 5.08838 66.2729 5.54736C65.8872 6.00635 65.6943 6.7583 65.6943 7.80322V12H64.4785V0.603516H65.6943V4.05322C65.6943 4.46826 65.6748 4.8125 65.6357 5.08594H65.709C65.9482 4.7002 66.2876 4.39746 66.7271 4.17773C67.1714 3.95312 67.6768 3.84082 68.2432 3.84082C69.2246 3.84082 69.9595 4.0752 70.4478 4.54395C70.9409 5.00781 71.1875 5.74756 71.1875 6.76318V12H69.9717ZM98.8457 3.84082C99.9004 3.84082 100.718 4.20215 101.299 4.9248C101.885 5.64258 102.178 6.66064 102.178 7.979C102.178 9.29736 101.883 10.3228 101.292 11.0552C100.706 11.7827 99.8906 12.1465 98.8457 12.1465C98.3232 12.1465 97.8447 12.0513 97.4102 11.8608C96.9805 11.6655 96.6191 11.3677 96.3262 10.9673H96.2383L95.9819 12H95.1104V0.603516H96.3262V3.37207C96.3262 3.99219 96.3066 4.54883 96.2676 5.04199H96.3262C96.8926 4.24121 97.7324 3.84082 98.8457 3.84082ZM98.6699 4.85889C97.8398 4.85889 97.2417 5.09814 96.8755 5.57666C96.5093 6.05029 96.3262 6.85107 96.3262 7.979C96.3262 9.10693 96.5142 9.91504 96.8901 10.4033C97.2661 10.8867 97.8691 11.1284 98.6992 11.1284C99.4463 11.1284 100.003 10.8574 100.369 10.3154C100.735 9.76855 100.918 8.98486 100.918 7.96436C100.918 6.91943 100.735 6.14062 100.369 5.62793C100.003 5.11523 99.4365 4.85889 98.6699 4.85889ZM103.035 3.97266H104.339L106.097 8.55029C106.482 9.59521 106.722 10.3496 106.814 10.8135H106.873C106.937 10.5645 107.068 10.1396 107.269 9.53906C107.474 8.93359 108.138 7.07812 109.261 3.97266H110.564L107.115 13.1133C106.773 14.0166 106.373 14.6562 105.914 15.0322C105.459 15.4131 104.9 15.6035 104.236 15.6035C103.865 15.6035 103.499 15.562 103.138 15.479V14.5049C103.406 14.5635 103.707 14.5928 104.039 14.5928C104.874 14.5928 105.469 14.124 105.826 13.1865L106.272 12.0439L103.035 3.97266Z" fill="#F5F5F5"/>
<path d="M87.4736 2.22461C86.0771 1.03125 84.0205 1.25977 82.7256 2.58008L82.2432 3.08789L81.7354 2.58008C80.4658 1.25977 78.3838 1.03125 76.9873 2.22461C75.3877 3.5957 75.3115 6.0332 76.7334 7.50586L81.6592 12.584C81.9639 12.9141 82.4971 12.9141 82.8018 12.584L87.7275 7.50586C89.1494 6.0332 89.0732 3.5957 87.4736 2.22461Z" fill="#FDBC30"/>
</svg>
