<svg width="273" height="38" viewBox="0 0 273 38" fill="none" xmlns="http://www.w3.org/2000/svg">
<path d="M3.29992 30.6167V18.7637H1.24664V15.3727L3.29992 15.2172V14.3772C3.29992 13.5683 3.39325 12.8009 3.57991 12.075C3.78731 11.3491 4.11915 10.7165 4.57544 10.1773C5.03172 9.63806 5.62281 9.21288 6.34872 8.90178C7.07462 8.59068 7.95608 8.43513 8.99308 8.43513C9.63603 8.43513 10.2168 8.49735 10.7353 8.62179C11.2745 8.74623 11.7204 8.87067 12.073 8.99511L11.233 12.355C10.6523 12.1476 10.1234 12.0439 9.6464 12.0439C9.08641 12.0439 8.65087 12.2202 8.33977 12.5728C8.02867 12.9046 7.87312 13.4646 7.87312 14.2527V15.186H10.6419V18.7637H7.87312V30.6167H3.29992ZM18.6701 30.99C17.6953 30.99 16.7516 30.8137 15.839 30.4611C14.9265 30.0878 14.1176 29.559 13.4124 28.8745C12.728 28.1901 12.1784 27.3501 11.7636 26.3546C11.3488 25.3383 11.1414 24.1873 11.1414 22.9014C11.1414 21.6155 11.3488 20.4748 11.7636 19.4792C12.1784 18.463 12.728 17.6126 13.4124 16.9282C14.1176 16.2438 14.9265 15.7253 15.839 15.3727C16.7516 14.9994 17.6953 14.8127 18.6701 14.8127C19.6448 14.8127 20.5781 14.9994 21.47 15.3727C22.3825 15.7253 23.181 16.2438 23.8655 16.9282C24.5706 17.6126 25.1306 18.463 25.5454 19.4792C25.9602 20.4748 26.1676 21.6155 26.1676 22.9014C26.1676 24.1873 25.9602 25.3383 25.5454 26.3546C25.1306 27.3501 24.5706 28.1901 23.8655 28.8745C23.181 29.559 22.3825 30.0878 21.47 30.4611C20.5781 30.8137 19.6448 30.99 18.6701 30.99ZM18.6701 27.2879C19.6034 27.2879 20.3085 26.8938 20.7855 26.1057C21.2626 25.3176 21.5011 24.2495 21.5011 22.9014C21.5011 21.5533 21.2626 20.4851 20.7855 19.697C20.3085 18.9089 19.6034 18.5148 18.6701 18.5148C17.716 18.5148 17.0005 18.9089 16.5235 19.697C16.0672 20.4851 15.839 21.5533 15.839 22.9014C15.839 24.2495 16.0672 25.3176 16.5235 26.1057C17.0005 26.8938 17.716 27.2879 18.6701 27.2879ZM35.1487 30.99C34.174 30.99 33.2303 30.8137 32.3177 30.4611C31.4051 30.0878 30.5963 29.559 29.8911 28.8745C29.2067 28.1901 28.6571 27.3501 28.2423 26.3546C27.8275 25.3383 27.6201 24.1873 27.6201 22.9014C27.6201 21.6155 27.8275 20.4748 28.2423 19.4792C28.6571 18.463 29.2067 17.6126 29.8911 16.9282C30.5963 16.2438 31.4051 15.7253 32.3177 15.3727C33.2303 14.9994 34.174 14.8127 35.1487 14.8127C36.1235 14.8127 37.0568 14.9994 37.9487 15.3727C38.8612 15.7253 39.6597 16.2438 40.3441 16.9282C41.0493 17.6126 41.6093 18.463 42.0241 19.4792C42.4389 20.4748 42.6463 21.6155 42.6463 22.9014C42.6463 24.1873 42.4389 25.3383 42.0241 26.3546C41.6093 27.3501 41.0493 28.1901 40.3441 28.8745C39.6597 29.559 38.8612 30.0878 37.9487 30.4611C37.0568 30.8137 36.1235 30.99 35.1487 30.99ZM35.1487 27.2879C36.082 27.2879 36.7872 26.8938 37.2642 26.1057C37.7413 25.3176 37.9798 24.2495 37.9798 22.9014C37.9798 21.5533 37.7413 20.4851 37.2642 19.697C36.7872 18.9089 36.082 18.5148 35.1487 18.5148C34.1947 18.5148 33.4792 18.9089 33.0021 19.697C32.5459 20.4851 32.3177 21.5533 32.3177 22.9014C32.3177 24.2495 32.5459 25.3176 33.0021 26.1057C33.4792 26.8938 34.1947 27.2879 35.1487 27.2879ZM50.5075 30.99C49.5534 30.99 48.6823 30.8034 47.8942 30.43C47.1268 30.0567 46.4631 29.5278 45.9031 28.8434C45.3639 28.1383 44.9387 27.2879 44.6276 26.2924C44.3373 25.2969 44.1921 24.1665 44.1921 22.9014C44.1921 21.6362 44.3684 20.5059 44.721 19.5104C45.0943 18.5148 45.5713 17.6749 46.152 16.9904C46.7535 16.2853 47.4379 15.746 48.2053 15.3727C48.9934 14.9994 49.7919 14.8127 50.6008 14.8127C51.4719 14.8127 52.1874 14.9579 52.7474 15.2483C53.3074 15.5386 53.857 15.9327 54.3962 16.4304L54.2096 14.0661V8.80845H58.7828V30.6167H55.0495L54.7384 29.0923H54.614C54.0748 29.6315 53.4422 30.0878 52.7163 30.4611C51.9904 30.8137 51.2541 30.99 50.5075 30.99ZM51.6896 27.2568C52.1874 27.2568 52.6333 27.1531 53.0274 26.9457C53.4422 26.7383 53.8362 26.3753 54.2096 25.8568V19.5415C53.7948 19.1681 53.3696 18.9089 52.934 18.7637C52.4985 18.6185 52.0733 18.5459 51.6585 18.5459C50.9326 18.5459 50.2897 18.8985 49.7297 19.6037C49.1697 20.2881 48.8897 21.3666 48.8897 22.8392C48.8897 24.3739 49.1282 25.4939 49.6053 26.1991C50.103 26.9042 50.7978 27.2568 51.6896 27.2568Z" fill="#F17228"/>
<path d="M65.8796 28.6167H71.4483L72.6616 22.6747C72.9416 21.2436 73.1283 19.8747 73.3772 18.1015H73.5016C73.7505 19.8747 73.9994 21.2436 74.2793 22.6747L75.5238 28.6167H81.248L84.8879 13.1549H80.4392L79.0703 20.1236C78.7903 21.6169 78.6659 23.1102 78.3859 24.7901H78.2615C77.9815 23.1102 77.7015 21.6169 77.3593 20.1236L75.7104 13.1549H71.4483L69.8617 20.1236C69.5195 21.5858 69.2706 23.1102 68.9906 24.7901H68.8662C68.6484 23.1102 68.4617 21.6169 68.2129 20.1236L66.8129 13.1549H62.053L65.8796 28.6167ZM90.5954 28.99C92.3376 28.99 93.7376 28.2123 95.0131 27.0612H95.1375L95.4797 28.6167H99.3996V19.8436C99.3996 14.9904 97.1597 12.7816 93.1776 12.7816C90.751 12.7816 88.5422 13.5594 86.52 14.8038L88.1999 17.9148C89.7555 17.0437 90.9999 16.6082 92.2443 16.6082C93.8309 16.6082 94.4842 17.3548 94.6086 18.6303C88.511 19.2525 85.9911 21.0258 85.9911 24.2924C85.9911 26.8745 87.7644 28.99 90.5954 28.99ZM92.2443 25.2568C91.1865 25.2568 90.5954 24.8213 90.5954 23.9191C90.5954 22.8302 91.5287 21.9902 94.6086 21.5858V24.0435C93.862 24.7901 93.2087 25.2568 92.2443 25.2568ZM110.059 28.9221C108.905 28.9221 107.819 28.7525 106.801 28.4131C105.783 28.0567 104.892 27.5307 104.128 26.8349C103.382 26.1222 102.788 25.2398 102.347 24.1877C101.922 23.1187 101.71 21.8799 101.71 20.4715C101.71 19.08 101.931 17.8497 102.372 16.7807C102.813 15.6947 103.407 14.7868 104.154 14.0571C104.917 13.3105 105.8 12.742 106.801 12.3517C107.802 11.9614 108.854 11.7663 109.957 11.7663C111.179 11.7663 112.231 11.9869 113.114 12.4281C114.013 12.8523 114.76 13.3614 115.354 13.9553L113.063 16.7552C112.655 16.3989 112.223 16.1104 111.765 15.8898C111.323 15.6522 110.772 15.5334 110.11 15.5334C109.55 15.5334 109.032 15.6437 108.557 15.8643C108.082 16.0849 107.666 16.3989 107.31 16.8061C106.954 17.2134 106.674 17.714 106.47 18.3079C106.283 18.9018 106.19 19.5721 106.19 20.3188C106.19 21.8799 106.538 23.0763 107.234 23.9077C107.929 24.7392 109.024 25.155 110.517 25.155C110.755 25.155 110.984 25.1295 111.205 25.0786C111.442 25.0277 111.637 24.9514 111.79 24.8495V22.5587H109.346V18.9952H115.659V26.8858C115.065 27.4458 114.276 27.9294 113.292 28.3367C112.308 28.727 111.23 28.9221 110.059 28.9221ZM125.185 28.99C129.136 28.99 132.776 26.0034 132.776 20.8703C132.776 15.7371 129.136 12.7816 125.185 12.7816C121.265 12.7816 117.626 15.7371 117.626 20.8703C117.626 26.0034 121.265 28.99 125.185 28.99ZM125.185 25.1012C123.381 25.1012 122.541 23.4524 122.541 20.8703C122.541 18.3192 123.381 16.6393 125.185 16.6393C126.99 16.6393 127.83 18.3192 127.83 20.8703C127.83 23.4524 126.99 25.1012 125.185 25.1012ZM135.036 28.6167H139.827V18.257C140.791 17.3859 141.445 16.857 142.534 16.857C143.778 16.857 144.338 17.5104 144.338 19.657V28.6167H149.16V19.0348C149.16 15.1771 147.729 12.7816 144.369 12.7816C142.254 12.7816 140.698 13.8394 139.423 15.0838H139.298L138.956 13.1549H135.036V28.6167Z" fill="#FFB30E"/>
</svg>
